<?xml version="1.0" standalone="no"?>
<!DOCTYPE svg PUBLIC "-//W3C//DTD SVG 20010904//EN"
 "http://www.w3.org/TR/2001/REC-SVG-20010904/DTD/svg10.dtd">
<svg version="1.0" xmlns="http://www.w3.org/2000/svg"
 width="382.000000pt" height="382.000000pt" viewBox="0 0 382.000000 382.000000"
 preserveAspectRatio="xMidYMid meet">
<metadata>
Created by potrace 1.14, written by Peter Selinger 2001-2017
</metadata>
<g transform="translate(0.000000,382.000000) scale(0.100000,-0.100000)"
fill="#000000" stroke="none">
<path d="M1870 3473 c-1 -10 -2 -32 -2 -50 -1 -18 -4 -31 -7 -29 -3 2 -7 -8
-7 -22 -2 -26 -7 -58 -18 -112 -2 -14 -7 -41 -10 -60 -3 -19 -8 -46 -11 -60
-5 -24 -9 -48 -21 -129 -2 -19 -7 -37 -9 -42 -11 -17 -17 -117 -7 -123 6 -3
13 -3 16 2 2 4 50 7 105 5 l101 -2 -6 32 c-3 18 -8 43 -9 57 -2 14 -4 25 -5
25 -1 0 -5 20 -15 90 -1 11 -3 20 -5 20 -1 0 -3 11 -5 25 -6 52 -13 96 -19
110 -2 8 -8 35 -11 60 -4 25 -9 56 -11 70 -13 68 -16 87 -17 108 -1 12 -6 22
-10 22 -5 0 -5 5 -2 10 3 6 2 10 -4 10 -5 0 -10 -8 -11 -17z"/>
<path d="M3053 3004 c3 -4 -15 -22 -41 -40 -26 -18 -51 -37 -57 -41 -5 -4 -30
-21 -54 -37 -25 -16 -50 -33 -55 -38 -6 -5 -38 -28 -72 -51 -230 -158 -243
-169 -231 -188 7 -11 15 -19 19 -19 7 0 78 -70 111 -110 24 -28 20 -31 136
135 49 72 94 135 98 140 4 6 28 39 53 75 24 36 48 67 52 68 4 2 8 9 8 15 0 7
11 25 25 40 14 15 22 27 18 27 -4 0 -2 4 5 9 11 6 10 10 -4 15 -10 4 -15 4
-11 0z"/>
<path d="M698 2993 c6 -2 12 -11 12 -19 0 -8 4 -14 9 -14 5 0 14 -13 21 -30 7
-16 15 -30 19 -30 4 0 15 -15 26 -32 10 -18 24 -39 29 -46 31 -37 32 -38 77
-109 12 -18 26 -33 32 -33 6 0 8 -3 4 -6 -3 -4 8 -26 26 -50 52 -70 68 -93 66
-96 -1 -2 11 -17 27 -35 l28 -32 64 67 c35 37 68 66 73 64 5 -1 9 4 9 12 0 8
5 16 11 18 9 3 -85 74 -185 141 -10 6 -24 18 -32 25 -7 6 -15 12 -18 12 -4 0
-34 20 -69 45 -34 25 -71 51 -82 59 -68 50 -141 96 -150 95 -5 0 -4 -3 3 -6z"/>
<path d="M1784 2769 c-2 -3 -13 -5 -26 -4 -28 2 -199 -41 -207 -52 -3 -4 -15
-9 -26 -11 -30 -5 -177 -87 -208 -116 -15 -14 -27 -22 -27 -19 0 3 -17 -13
-39 -36 -21 -22 -41 -38 -45 -34 -3 3 -6 1 -6 -6 0 -6 -13 -25 -30 -41 -16
-16 -30 -32 -30 -35 0 -2 -9 -15 -20 -27 -10 -13 -18 -25 -17 -28 2 -5 -7 -16
-39 -53 -6 -7 -12 -16 -13 -22 -2 -5 -12 -27 -22 -47 -11 -21 -16 -38 -12 -38
5 0 2 -4 -4 -8 -7 -4 -14 -17 -16 -27 -2 -11 -9 -31 -14 -45 -6 -14 -9 -28 -6
-32 2 -5 0 -8 -4 -8 -5 0 -9 -8 -10 -17 -1 -10 -4 -31 -8 -48 -3 -16 -7 -50
-10 -75 -2 -25 -5 -47 -5 -50 -2 -5 1 -85 4 -145 1 -17 5 -36 10 -43 4 -7 2
-12 -6 -12 -8 0 -9 -3 -3 -8 6 -4 11 -14 11 -22 0 -8 6 -35 13 -60 7 -25 14
-49 16 -55 3 -14 15 -44 31 -82 8 -17 14 -36 14 -42 0 -6 5 -11 10 -11 6 0 10
-9 10 -20 0 -11 3 -20 8 -20 4 0 19 -21 34 -48 15 -26 43 -64 62 -86 20 -21
36 -40 36 -42 0 -6 54 -55 91 -84 18 -14 37 -30 43 -35 46 -44 232 -133 321
-153 96 -22 111 -24 217 -26 118 -3 174 5 294 40 110 32 269 116 315 166 9 10
19 18 23 18 6 0 40 34 114 113 17 20 32 39 32 45 0 5 9 17 20 27 11 10 20 24
20 31 0 7 4 14 9 16 5 2 11 10 13 18 2 8 6 17 9 20 10 8 59 119 59 134 0 7 3
16 8 20 4 4 8 12 8 17 1 5 2 10 4 12 1 1 3 11 5 22 2 11 5 30 8 41 3 12 8 38
11 59 4 20 9 41 12 46 3 5 0 9 -6 9 -7 0 -8 5 -3 13 9 13 12 127 3 127 -3 0
-5 19 -6 43 -1 45 -7 79 -24 142 -7 22 -14 52 -17 68 -3 15 -9 27 -14 27 -5 0
-9 8 -9 18 0 20 -73 154 -110 204 -28 37 -150 161 -193 196 -16 13 -44 30 -63
39 -19 9 -34 21 -34 25 0 5 -4 6 -10 3 -5 -3 -10 -2 -10 2 0 9 -92 50 -99 45
-2 -2 -7 1 -10 7 -4 6 -18 13 -31 15 -14 2 -26 5 -27 7 -2 1 -7 3 -13 4 -5 1
-11 3 -12 5 -2 1 -12 3 -23 5 -11 2 -36 7 -55 11 -19 5 -44 9 -55 10 -11 1
-22 2 -25 4 -12 5 -192 4 -196 -1z m128 -174 c5 -6 8 -5 8 3 0 7 5 10 11 6 6
-4 37 -9 68 -11 31 -3 62 -10 68 -15 7 -6 20 -8 28 -4 8 3 15 1 15 -4 0 -6 3
-9 8 -8 12 2 62 -14 62 -21 0 -4 10 -8 22 -8 13 -1 24 -7 26 -13 2 -5 9 -10
16 -10 28 0 223 -156 211 -168 -3 -3 7 -14 22 -24 16 -10 24 -18 20 -18 -4 0
1 -10 13 -22 11 -12 20 -28 20 -35 0 -8 5 -11 10 -8 6 3 10 1 10 -4 0 -6 13
-37 28 -69 25 -51 39 -94 58 -174 2 -10 6 -28 9 -40 8 -30 8 -161 1 -220 -5
-43 -33 -153 -43 -171 -3 -4 -13 2 -24 15 -10 13 -23 28 -29 35 -5 7 -10 16
-10 22 0 5 -4 11 -8 13 -4 2 -23 26 -42 53 -19 28 -37 52 -40 55 -3 3 -14 18
-25 34 -11 16 -29 41 -40 56 -11 16 -47 66 -80 111 -32 46 -63 86 -67 87 -4 2
-8 8 -8 13 0 5 -7 17 -15 26 -8 10 -28 37 -45 61 -35 49 -31 52 -105 -53 -56
-79 -63 -89 -87 -116 -10 -10 -17 -20 -15 -22 1 -2 -8 -17 -20 -33 -13 -16
-42 -56 -66 -89 -24 -33 -63 -88 -88 -122 -24 -33 -51 -71 -59 -83 -8 -12 -31
-43 -50 -69 -19 -26 -55 -76 -80 -110 -72 -102 -77 -107 -77 -88 0 10 4 17 9
17 4 0 8 4 8 10 0 11 40 101 105 235 62 130 62 123 10 194 -25 33 -45 65 -45
70 0 5 -3 11 -7 13 -5 2 -21 20 -37 41 l-28 39 -34 -49 c-19 -26 -41 -56 -50
-66 -8 -10 -20 -29 -26 -42 -6 -14 -15 -22 -19 -19 -5 3 -9 -2 -9 -10 0 -9 -4
-16 -10 -16 -5 0 -10 -7 -10 -15 0 -8 -4 -15 -10 -15 -5 0 -10 -7 -10 -15 0
-8 -4 -15 -9 -15 -5 0 -21 -20 -35 -45 -15 -25 -32 -45 -38 -45 -6 0 -9 -3 -5
-6 3 -4 1 -12 -6 -20 -7 -7 -25 -31 -41 -53 -18 -24 -34 -37 -43 -34 -8 3 -12
8 -9 10 3 3 -3 22 -13 42 -11 20 -19 38 -19 41 0 3 -3 21 -7 40 -3 19 -7 42
-8 50 -2 8 -5 20 -8 25 -8 13 -3 231 5 270 4 17 10 39 13 50 4 11 8 23 9 28 1
4 3 9 4 12 1 3 3 8 4 13 1 4 10 24 19 46 9 21 17 41 17 43 0 3 20 36 45 73 38
58 119 147 167 185 64 51 167 108 194 108 8 0 14 4 14 7 0 9 86 34 118 34 12
0 22 3 22 6 0 4 27 6 60 6 33 -1 60 3 60 7 0 11 33 4 42 -8z"/>
<path d="M1806 2542 c-2 -2 -19 -5 -38 -7 -18 -2 -33 -4 -33 -5 0 -1 -7 -3
-15 -5 -8 -2 -24 -6 -35 -9 -40 -9 -104 -35 -129 -51 -14 -10 -26 -14 -26 -10
0 3 -6 0 -14 -7 -27 -26 -56 -48 -56 -43 0 3 -16 -9 -36 -27 -57 -51 -64 -59
-64 -69 0 -6 -4 -8 -9 -4 -5 3 -12 -4 -16 -15 -3 -11 -10 -20 -14 -20 -4 0
-16 -16 -27 -35 -10 -19 -21 -35 -25 -35 -4 0 -10 -10 -14 -22 -4 -13 -8 -25
-9 -28 -1 -3 -9 -19 -18 -36 -10 -17 -19 -42 -22 -55 -2 -13 -9 -37 -16 -54
-6 -16 -13 -59 -15 -95 -2 -36 -5 -67 -6 -70 -1 -3 0 -16 1 -30 1 -14 4 -38 5
-55 2 -16 4 -32 5 -35 4 -9 7 -25 9 -50 1 -14 6 -32 11 -40 8 -13 12 -12 25 7
8 12 22 29 30 36 9 10 12 26 9 48 -8 52 -11 189 -4 189 3 0 5 15 5 33 -1 17 3
38 8 45 5 7 7 15 4 18 -3 4 2 23 13 44 11 21 16 40 13 44 -4 3 -1 6 5 6 7 0
12 6 12 13 0 20 76 126 119 167 60 57 104 90 111 85 5 -3 11 2 14 11 3 8 10
12 16 9 5 -3 10 -1 10 6 0 7 3 9 7 6 3 -4 13 -1 22 7 18 16 120 47 164 51 15
2 31 5 34 8 3 4 14 2 24 -4 11 -5 19 -6 19 -1 0 9 59 8 120 -3 19 -3 44 -7 55
-9 40 -7 175 -68 209 -96 54 -43 146 -136 146 -147 0 -7 5 -13 10 -13 6 0 10
-5 10 -11 0 -6 8 -23 19 -37 19 -29 57 -124 66 -169 14 -67 16 -92 16 -165 0
-44 4 -78 10 -78 5 0 14 -11 21 -25 6 -13 16 -22 21 -18 7 4 8 -1 3 -13 -5
-13 -4 -16 3 -9 21 22 30 154 17 260 -4 33 -8 66 -8 73 -1 6 -4 12 -8 12 -3 0
-6 8 -7 18 -1 23 -36 116 -45 120 -5 2 -8 8 -8 13 0 34 -136 196 -199 239 -13
8 -32 22 -42 31 -11 9 -34 23 -52 30 -17 7 -34 16 -37 19 -6 7 -104 40 -137
46 -13 2 -35 7 -50 10 -32 7 -182 12 -187 6z"/>
<path d="M847 1952 c-4 -6 -15 -10 -25 -10 -15 0 -52 -5 -122 -18 -45 -8 -105
-17 -117 -17 -7 0 -13 -4 -13 -9 0 -5 -4 -7 -9 -3 -5 3 -29 1 -53 -4 -24 -5
-61 -12 -83 -16 -22 -4 -51 -8 -65 -11 -14 -2 -36 -6 -50 -9 -102 -17 -122
-24 -82 -26 22 -2 40 -5 45 -9 1 -1 22 -4 47 -6 25 -3 47 -9 50 -12 4 -6 35
-10 90 -13 8 0 22 -3 30 -6 8 -4 20 -7 25 -7 33 -5 123 -19 140 -23 35 -7 59
-11 110 -19 28 -3 51 -10 53 -15 2 -4 9 -6 15 -4 45 13 49 16 39 28 -5 6 -9
51 -8 98 2 88 -5 132 -17 111z"/>
<path d="M2901 1942 c-6 -11 -8 -22 -5 -25 8 -8 11 -118 4 -163 -5 -34 -4 -40
12 -41 10 -1 18 2 18 6 0 4 6 8 13 9 67 4 116 10 123 15 9 5 69 17 114 22 14
1 39 5 55 9 46 10 75 15 120 21 22 3 47 8 55 10 18 5 97 17 123 18 16 1 25 16
10 18 -5 1 -19 2 -33 4 -14 2 -72 13 -130 24 -58 12 -123 24 -145 27 -51 8
-74 12 -105 19 -14 3 -41 8 -60 11 -19 3 -42 7 -50 9 -8 3 -33 7 -55 11 -22 3
-43 8 -47 10 -4 3 -12 -4 -17 -14z"/>
<path d="M1069 1167 c-7 -15 -16 -27 -21 -27 -4 0 -8 -5 -8 -10 0 -6 -4 -16
-10 -23 -49 -60 -61 -77 -53 -77 4 0 3 -4 -3 -8 -12 -8 -224 -308 -224 -317 0
-3 -11 -18 -24 -32 -33 -36 -22 -49 17 -21 18 12 34 25 37 28 12 13 102 70
110 70 6 0 10 4 10 8 0 5 24 24 53 42 28 19 57 38 62 43 6 4 42 30 80 57 39
27 75 54 82 60 7 5 17 10 22 10 6 0 15 8 20 18 6 9 11 13 11 9 0 -5 7 -1 16 8
16 15 14 19 -20 47 -20 16 -61 55 -91 86 l-54 56 -12 -27z"/>
<path d="M2605 1115 c-38 -41 -78 -78 -89 -82 -15 -7 1 -22 95 -88 63 -44 116
-82 119 -85 3 -3 12 -9 22 -15 47 -29 203 -140 206 -147 2 -4 10 -8 18 -8 8 0
14 -4 14 -10 0 -5 7 -10 15 -10 8 0 15 -4 15 -10 0 -5 7 -10 15 -10 8 0 15 -4
15 -10 0 -5 5 -10 10 -10 16 0 12 14 -10 38 -11 12 -20 26 -20 32 0 5 -4 10
-10 10 -5 0 -10 7 -10 15 0 8 -4 15 -10 15 -5 0 -10 6 -10 14 0 8 -3 16 -8 18
-8 3 -202 276 -202 284 0 3 -5 10 -10 17 -40 47 -54 65 -68 90 -9 15 -19 27
-22 26 -3 0 -36 -33 -75 -74z"/>
<path d="M1769 805 c-1 -5 -1 -14 0 -18 1 -4 3 -22 5 -40 3 -18 5 -32 6 -32 3
0 10 -40 14 -70 1 -16 6 -38 11 -47 4 -10 5 -25 1 -33 -3 -8 -2 -15 3 -15 5 0
7 -10 7 -22 -1 -13 0 -27 3 -33 3 -5 6 -15 7 -22 7 -47 16 -102 21 -123 2 -14
6 -41 8 -60 2 -19 4 -35 5 -35 1 0 4 -11 5 -25 12 -87 24 -84 29 8 0 12 4 22
7 22 4 0 7 10 7 23 1 21 9 62 12 62 1 0 3 14 5 30 4 41 22 140 25 140 1 0 3
16 5 36 1 20 5 45 8 55 3 10 9 37 12 59 3 23 8 52 11 65 3 14 7 39 9 56 l2 30
-113 0 c-69 -1 -114 -5 -115 -11z"/>
</g>
</svg>
