<svg id="visual" viewBox="0 0 900 600" width="900" height="600" xmlns="http://www.w3.org/2000/svg" xmlns:xlink="http://www.w3.org/1999/xlink" version="1.1"><path d="M0 79L60 85L120 31L180 127L240 103L300 49L360 133L420 67L480 85L540 73L600 115L660 67L720 91L780 37L840 55L900 43L900 0L840 0L780 0L720 0L660 0L600 0L540 0L480 0L420 0L360 0L300 0L240 0L180 0L120 0L60 0L0 0Z" fill="#00cc8e"></path><path d="M0 103L60 157L120 85L180 151L240 151L300 115L360 181L420 91L480 163L540 139L600 133L660 121L720 151L780 127L840 151L900 73L900 41L840 53L780 35L720 89L660 65L600 113L540 71L480 83L420 65L360 131L300 47L240 101L180 125L120 29L60 83L0 77Z" fill="#00c18c"></path><path d="M0 187L60 271L120 241L180 193L240 271L300 223L360 319L420 349L480 259L540 343L600 349L660 343L720 265L780 325L840 259L900 271L900 71L840 149L780 125L720 149L660 119L600 131L540 137L480 161L420 89L360 179L300 113L240 149L180 149L120 83L60 155L0 101Z" fill="#00b789"></path><path d="M0 265L60 301L120 337L180 247L240 295L300 253L360 355L420 415L480 271L540 391L600 373L660 385L720 289L780 379L840 313L900 361L900 269L840 257L780 323L720 263L660 341L600 347L540 341L480 257L420 347L360 317L300 221L240 269L180 191L120 239L60 269L0 185Z" fill="#00ac86"></path><path d="M0 337L60 355L120 397L180 283L240 355L300 265L360 403L420 481L480 331L540 439L600 427L660 421L720 325L780 439L840 325L900 421L900 359L840 311L780 377L720 287L660 383L600 371L540 389L480 269L420 413L360 353L300 251L240 293L180 245L120 335L60 299L0 263Z" fill="#00a282"></path><path d="M0 487L60 469L120 511L180 493L240 529L300 493L360 523L420 535L480 493L540 553L600 535L660 523L720 523L780 529L840 523L900 517L900 419L840 323L780 437L720 323L660 419L600 425L540 437L480 329L420 479L360 401L300 263L240 353L180 281L120 395L60 353L0 335Z" fill="#00977e"></path><path d="M0 559L60 541L120 541L180 547L240 547L300 571L360 559L420 571L480 553L540 577L600 559L660 541L720 583L780 559L840 565L900 559L900 515L840 521L780 527L720 521L660 521L600 533L540 551L480 491L420 533L360 521L300 491L240 527L180 491L120 509L60 467L0 485Z" fill="#008d79"></path><path d="M0 601L60 601L120 601L180 601L240 601L300 601L360 601L420 601L480 601L540 601L600 601L660 601L720 601L780 601L840 601L900 601L900 557L840 563L780 557L720 581L660 539L600 557L540 575L480 551L420 569L360 557L300 569L240 545L180 545L120 539L60 539L0 557Z" fill="#038373"></path></svg>