<svg id="visual" viewBox="0 0 900 600" width="900" height="600" xmlns="http://www.w3.org/2000/svg" xmlns:xlink="http://www.w3.org/1999/xlink" version="1.1"><path d="M0 103L53 193L106 181L159 175L212 91L265 169L318 157L371 205L424 223L476 133L529 169L582 211L635 127L688 175L741 199L794 103L847 133L900 133L900 0L847 0L794 0L741 0L688 0L635 0L582 0L529 0L476 0L424 0L371 0L318 0L265 0L212 0L159 0L106 0L53 0L0 0Z" fill="#f7770f"></path><path d="M0 151L53 247L106 253L159 211L212 121L265 223L318 211L371 277L424 271L476 199L529 223L582 247L635 211L688 205L741 253L794 187L847 211L900 193L900 131L847 131L794 101L741 197L688 173L635 125L582 209L529 167L476 131L424 221L371 203L318 155L265 167L212 89L159 173L106 179L53 191L0 101Z" fill="#f88317"></path><path d="M0 373L53 391L106 337L159 379L212 325L265 331L318 355L371 367L424 361L476 457L529 367L582 379L635 337L688 343L741 337L794 427L847 397L900 343L900 191L847 209L794 185L741 251L688 203L635 209L582 245L529 221L476 197L424 269L371 275L318 209L265 221L212 119L159 209L106 251L53 245L0 149Z" fill="#f98e20"></path><path d="M0 451L53 475L106 367L159 463L212 367L265 367L318 397L371 445L424 439L476 493L529 427L582 421L635 385L688 391L741 409L794 475L847 481L900 385L900 341L847 395L794 425L741 335L688 341L635 335L582 377L529 365L476 455L424 359L371 365L318 353L265 329L212 323L159 377L106 335L53 389L0 371Z" fill="#fa9a29"></path><path d="M0 499L53 523L106 493L159 547L212 493L265 499L318 487L371 535L424 547L476 547L529 535L582 541L635 517L688 541L741 505L794 547L847 523L900 493L900 383L847 479L794 473L741 407L688 389L635 383L582 419L529 425L476 491L424 437L371 443L318 395L265 365L212 365L159 461L106 365L53 473L0 449Z" fill="#fba432"></path><path d="M0 601L53 601L106 601L159 601L212 601L265 601L318 601L371 601L424 601L476 601L529 601L582 601L635 601L688 601L741 601L794 601L847 601L900 601L900 491L847 521L794 545L741 503L688 539L635 515L582 539L529 533L476 545L424 545L371 533L318 485L265 497L212 491L159 545L106 491L53 521L0 497Z" fill="#fcaf3c"></path></svg>